<svg width="18" height="19" viewBox="0 0 18 19" fill="none" xmlns="http://www.w3.org/2000/svg">
<path d="M17.5115 0.446765C17.8665 0.692859 18.0529 1.11825 17.9861 1.54364L15.7361 16.1686C15.6833 16.5097 15.4759 16.8085 15.1736 16.9772C14.8712 17.146 14.5091 17.1671 14.1892 17.0335L9.9845 15.2862L7.57629 17.8913C7.2634 18.2323 6.77122 18.3448 6.33879 18.1761C5.90637 18.0073 5.62512 17.589 5.62512 17.1249V14.1858C5.62512 14.0452 5.67786 13.9116 5.77278 13.8097L11.665 7.37958C11.8689 7.15809 11.8618 6.81708 11.6509 6.60614C11.44 6.3952 11.0989 6.38114 10.8775 6.58153L3.72668 12.9343L0.622388 11.3804C0.249731 11.194 0.0106689 10.8214 0.000122031 10.4065C-0.0104248 9.99169 0.207544 9.60497 0.566138 9.39755L16.3161 0.397547C16.6923 0.183093 17.1564 0.204187 17.5115 0.446765Z" fill="white"/>
</svg>
